<?xml version="1.0" encoding="utf-8"?>
<!-- Generator: Adobe Illustrator 23.1.1, SVG Export Plug-In . SVG Version: 6.00 Build 0)  -->
<svg version="1.1" id="Layer_1" xmlns="http://www.w3.org/2000/svg" xmlns:xlink="http://www.w3.org/1999/xlink" x="0px" y="0px"
	 viewBox="0 0 70 68" style="enable-background:new 0 0 70 68;" xml:space="preserve">
<style type="text/css">
	.st0{fill:#F6B347;}
	.st1{fill:#000B3A;}
	.st2{fill:none;stroke:#000B3A;stroke-width:2.22;stroke-miterlimit:10;}
	.st3{fill:none;stroke:#000B3A;stroke-width:2.22;stroke-linecap:round;stroke-linejoin:round;stroke-miterlimit:10;}
	.st4{fill:none;stroke:#FFFFFF;stroke-width:2.22;stroke-linecap:round;stroke-linejoin:round;stroke-miterlimit:10;}
	.st5{fill:none;stroke:#FFFFFF;stroke-width:2;stroke-miterlimit:10;}
	.st6{fill:#00135C;}
	.st7{fill:none;stroke:#4CA92C;stroke-width:7;stroke-linecap:round;stroke-linejoin:round;stroke-miterlimit:10;}
	.st8{fill:#FFFFFF;}
</style>
<g>
	<path class="st2" d="M54.78,64H15.22c-1.84,0-3.33-1.49-3.33-3.33V7.33c0-1.84,1.49-3.33,3.33-3.33h39.56
		c1.84,0,3.33,1.49,3.33,3.33v53.35C58.11,62.51,56.62,64,54.78,64z"/>
	<line class="st3" x1="19.18" y1="11.38" x2="36.75" y2="11.38"/>
	<line class="st3" x1="19.18" y1="17.71" x2="50.82" y2="17.71"/>
	<line class="st3" x1="19.18" y1="24.04" x2="50.82" y2="24.04"/>
	<line class="st3" x1="19.18" y1="30.38" x2="50.82" y2="30.38"/>
	<line class="st3" x1="19.18" y1="36.71" x2="50.82" y2="36.71"/>
	<line class="st3" x1="19.18" y1="43.04" x2="50.82" y2="43.04"/>
	<line class="st3" x1="19.18" y1="49.38" x2="50.82" y2="49.38"/>
	<line class="st3" x1="36.75" y1="56.54" x2="50.82" y2="56.54"/>
</g>
</svg>
