<?xml version="1.0" encoding="utf-8"?>
<!-- Generator: Adobe Illustrator 23.1.1, SVG Export Plug-In . SVG Version: 6.00 Build 0)  -->
<svg version="1.1" id="Layer_1" xmlns="http://www.w3.org/2000/svg" xmlns:xlink="http://www.w3.org/1999/xlink" x="0px" y="0px"
	 viewBox="0 0 70 68" style="enable-background:new 0 0 70 68;" xml:space="preserve">
<style type="text/css">
	.st0{fill:#F6B347;}
	.st1{fill:#000B3A;}
	.st2{fill:none;stroke:#000B3A;stroke-width:2.22;stroke-miterlimit:10;}
	.st3{fill:none;stroke:#000B3A;stroke-width:2.22;stroke-linecap:round;stroke-linejoin:round;stroke-miterlimit:10;}
	.st4{fill:none;stroke:#FFFFFF;stroke-width:2.22;stroke-linecap:round;stroke-linejoin:round;stroke-miterlimit:10;}
	.st5{fill:none;stroke:#FFFFFF;stroke-width:2;stroke-miterlimit:10;}
	.st6{fill:#00135C;}
	.st7{fill:none;stroke:#4CA92C;stroke-width:7;stroke-linecap:round;stroke-linejoin:round;stroke-miterlimit:10;}
	.st8{fill:#FFFFFF;}
</style>
<g>
	<path class="st1" d="M60.02,20.49c-4.96-5.19-13.16-5.64-18.65-1.05L35,24.77l-6.37-5.32c-5.5-4.6-13.69-4.14-18.65,1.05
		c-2.64,2.76-4.03,6.53-3.82,10.36c0.21,3.82,2.01,7.41,4.93,9.86l2.81,2.35c-0.58,1.36-0.48,2.96,0.43,4.16
		c0.69,0.91,1.7,1.48,2.83,1.61c0.27,0.03,0.54,0.04,0.81,0.01c-0.02,0.19-0.03,0.38-0.03,0.58c0.02,1.26,0.6,2.44,1.6,3.22
		c0.83,0.65,1.86,0.92,2.88,0.83c-0.03,0.2-0.04,0.4-0.03,0.6c0.02,1.26,0.6,2.43,1.6,3.22c0.83,0.65,1.86,0.93,2.88,0.83
		c-0.02,0.2-0.04,0.4-0.03,0.6c0.02,1.26,0.6,2.43,1.6,3.22c0.72,0.57,1.6,0.85,2.49,0.85c0.98,0,1.96-0.34,2.77-1.01l0.36-0.3
		c0.78,0.71,1.77,1.07,2.76,1.06c1.02,0,2.05-0.38,2.84-1.13c0.83-0.79,1.3-1.9,1.29-3.05c0-0.1-0.03-0.2-0.03-0.31
		c0.19,0.03,0.38,0.05,0.57,0.05c1.02,0,2.05-0.38,2.84-1.13c0.83-0.79,1.3-1.9,1.29-3.05c0-0.1-0.03-0.2-0.04-0.31
		c0.19,0.03,0.38,0.05,0.57,0.05c1.02,0,2.04-0.38,2.84-1.13c0.83-0.79,1.3-1.9,1.29-3.05c0-0.1-0.02-0.2-0.03-0.31
		c0.19,0.03,0.38,0.05,0.57,0.05c1.02,0,2.05-0.38,2.84-1.13c0.83-0.79,1.3-1.9,1.29-3.05c0-0.3-0.04-0.61-0.11-0.9
		c0.01-0.01,0.02-0.01,0.03-0.02l4.05-3.44c2.93-2.45,4.72-6.04,4.93-9.86C64.05,27.02,62.66,23.25,60.02,20.49 M12.29,39.28
		c-2.57-2.15-4.08-5.18-4.27-8.53c-0.19-3.36,0.99-6.54,3.3-8.97c4.29-4.48,11.36-4.88,16.11-0.9l15.16,12.67
		c0.5,0.42,0.79,1.01,0.83,1.66c0.04,0.65-0.19,1.27-0.64,1.74c-0.83,0.87-2.15,0.95-3.09,0.2l-6.86-5.53
		c-0.4-0.32-0.99-0.26-1.31,0.14c0,0,0,0.01,0,0.01l-0.01-0.01c-1.13,1.44-2.83,2.26-4.65,2.26c-3.28,0-5.94-2.69-5.94-5.99h-1.86
		c0,2.9,1.58,5.44,3.91,6.8l-7.86,6.57c-0.05,0.04-0.08,0.08-0.12,0.12L12.29,39.28z M29.59,60.48c-0.55-0.44-0.88-1.09-0.89-1.78
		c-0.01-0.7,0.29-1.35,0.82-1.8l0.5-0.42c0.14,0.95,0.57,1.83,1.28,2.48l1.37,1.26l-0.17,0.14C31.64,61.08,30.42,61.13,29.59,60.48
		 M38.37,60.07c-0.86,0.82-2.21,0.83-3.08,0.03l-2.73-2.51c-0.47-0.44-0.74-1.03-0.74-1.68c-0.01-0.65,0.25-1.24,0.71-1.69
		c0.43-0.41,0.99-0.62,1.55-0.62c0.55,0,1.1,0.2,1.53,0.59l0.89,0.82l1.83,1.69c0.47,0.43,0.73,1.03,0.74,1.67
		C39.09,59.03,38.83,59.63,38.37,60.07 M43.03,55.63c-0.86,0.81-2.21,0.83-3.08,0.02l-0.34-0.32c0,0-0.01-0.01-0.01-0.01l-2.38-2.19
		c-0.47-0.43-0.73-1.03-0.74-1.67c-0.01-0.65,0.25-1.25,0.71-1.69c0.43-0.41,0.99-0.62,1.55-0.62c0.55,0,1.1,0.2,1.53,0.6L43,52.27
		c0.47,0.44,0.74,1.03,0.74,1.68C43.75,54.59,43.5,55.19,43.03,55.63 M47.7,51.2c-0.86,0.82-2.21,0.83-3.08,0.02l-2.73-2.51
		c-0.47-0.43-0.73-1.03-0.74-1.67c-0.01-0.65,0.25-1.24,0.71-1.69c0.43-0.41,0.99-0.62,1.56-0.62c0.55,0,1.1,0.2,1.53,0.59
		l1.99,1.83l0.74,0.68c0.47,0.43,0.73,1.03,0.74,1.67C48.41,50.16,48.16,50.75,47.7,51.2 M52.36,46.76
		c-0.86,0.82-2.21,0.83-3.08,0.03l-0.34-0.32c0,0,0-0.01-0.01-0.01l-2.12-1.95l-0.26-0.24c-0.47-0.44-0.74-1.03-0.74-1.68
		c-0.01-0.64,0.25-1.24,0.71-1.69c0.43-0.41,0.99-0.62,1.55-0.62c0.55,0,1.1,0.2,1.53,0.59l2.73,2.51c0.47,0.43,0.74,1.03,0.74,1.67
		C53.08,45.72,52.83,46.32,52.36,46.76 M61.98,30.74c-0.19,3.36-1.7,6.39-4.28,8.54l-3.74,3.17c-0.12-0.15-0.23-0.3-0.37-0.42
		l-2.73-2.51c-1.59-1.46-4.06-1.44-5.62,0.05c-0.83,0.79-1.3,1.9-1.29,3.05c0,0.1,0.03,0.2,0.03,0.31
		c-1.21-0.17-2.47,0.19-3.41,1.08c-0.83,0.79-1.3,1.9-1.29,3.05c0,0.1,0.03,0.2,0.04,0.3c-1.2-0.17-2.47,0.19-3.41,1.08
		c-0.83,0.79-1.3,1.9-1.29,3.05c0,0.1,0.02,0.2,0.03,0.3c-1.2-0.17-2.47,0.19-3.41,1.08c-0.24,0.23-0.44,0.49-0.62,0.77
		c-0.12,0.03-0.23,0.09-0.34,0.18l-1.96,1.64c0,0,0,0,0,0l-0.28,0.24c-0.86,0.72-2.08,0.77-2.9,0.13c-0.56-0.44-0.88-1.09-0.89-1.79
		c-0.01-0.7,0.29-1.35,0.82-1.8l0,0l9.68-8.09l-1.19-1.43l-9.68,8.09l0,0h0l-0.28,0.24c-0.86,0.72-2.08,0.77-2.9,0.13
		c-0.56-0.44-0.88-1.09-0.89-1.79c-0.01-0.7,0.29-1.35,0.82-1.8l0,0l9.82-8.21l-1.19-1.43l-9.82,8.21l-0.01,0.01l-0.36,0.3
		c-0.48,0.4-1.08,0.58-1.7,0.51c-0.62-0.07-1.17-0.38-1.55-0.89c-0.73-0.96-0.51-2.42,0.48-3.26l8.61-7.2
		c0.62,0.16,1.27,0.26,1.95,0.26c2.08,0,4.03-0.82,5.48-2.27l6.18,4.98c1.69,1.36,4.1,1.21,5.6-0.36c0.8-0.83,1.22-1.98,1.15-3.13
		c-0.06-1.16-0.61-2.24-1.49-2.98l-7.34-6.14l6.11-5.11c4.75-3.98,11.83-3.58,16.11,0.9C60.99,24.2,62.16,27.39,61.98,30.74"/>
</g>
<path class="st1" d="M46.26,12.55l0.1-1.86c-0.17-0.01-0.35-0.01-0.52-0.01h-1.5v1.86h1.5C45.99,12.54,46.12,12.54,46.26,12.55"/>
<path class="st1" d="M50.52,11.89c-0.63-0.35-1.31-0.64-2.01-0.84l-0.52,1.79c0.56,0.16,1.11,0.39,1.62,0.67L50.52,11.89z"/>
<path class="st1" d="M53.73,14.79c-0.42-0.6-0.9-1.15-1.44-1.63l-1.25,1.38c0.43,0.39,0.83,0.84,1.16,1.32L53.73,14.79z"/>
<path class="st1" d="M18.94,14.53l-1.25-1.38c-0.54,0.49-1.02,1.03-1.44,1.63l1.52,1.07C18.12,15.37,18.51,14.92,18.94,14.53"/>
<path class="st1" d="M21.99,12.83l-0.52-1.79c-0.7,0.2-1.38,0.48-2.01,0.84l0.91,1.62C20.88,13.22,21.43,13,21.99,12.83"/>
<path class="st1" d="M24.13,12.54h1.51v-1.86h-1.51c-0.17,0-0.34,0-0.51,0.01l0.1,1.86C23.86,12.54,24,12.54,24.13,12.54"/>
<path class="st0" d="M35,7.88c-2.31,0-4.2,1.88-4.2,4.2c0,1.4,0.71,2.71,1.87,3.49v1.64h4.66v-1.64c1.16-0.78,1.87-2.09,1.87-3.49
	C39.2,9.77,37.31,7.88,35,7.88 M35,13.01c-0.52,0-0.93-0.42-0.93-0.93s0.42-0.93,0.93-0.93c0.52,0,0.93,0.42,0.93,0.93
	S35.52,13.01,35,13.01"/>
<path class="st1" d="M37.1,16.28h-1.63v-2.89c0.54-0.19,0.93-0.71,0.93-1.31c0-0.77-0.63-1.4-1.4-1.4c-0.77,0-1.4,0.63-1.4,1.4
	c0,0.61,0.39,1.12,0.93,1.31v2.89H32.9c-0.64,0-1.17,0.52-1.17,1.17c0,0.42,0.22,0.78,0.54,0.99c-0.05,0.13-0.08,0.27-0.08,0.41
	c0,0.64,0.52,1.17,1.17,1.17h3.27c0.64,0,1.17-0.52,1.17-1.17c0-0.15-0.03-0.29-0.08-0.41c0.33-0.21,0.55-0.57,0.55-0.99
	C38.27,16.8,37.74,16.28,37.1,16.28 M35,11.61c0.26,0,0.47,0.21,0.47,0.47c0,0.26-0.21,0.47-0.47,0.47c-0.26,0-0.47-0.21-0.47-0.47
	C34.53,11.82,34.74,11.61,35,11.61 M32.9,17.21h4.2c0.13,0,0.23,0.1,0.23,0.23c0,0.13-0.1,0.23-0.23,0.23h-4.2
	c-0.13,0-0.23-0.11-0.23-0.23C32.67,17.32,32.77,17.21,32.9,17.21 M36.63,19.08h-3.27c-0.13,0-0.23-0.1-0.23-0.23
	s0.1-0.23,0.23-0.23h3.27c0.13,0,0.23,0.11,0.23,0.23S36.76,19.08,36.63,19.08"/>
<rect x="34.53" y="5.08" class="st1" width="0.93" height="1.87"/>
<rect x="31.5" y="5.9" transform="matrix(0.8663 -0.4996 0.4996 0.8663 0.8639 16.8843)" class="st1" width="0.93" height="1.87"/>
<rect x="29.28" y="8.12" transform="matrix(0.4999 -0.8661 0.8661 0.4999 7.0386 30.2888)" class="st1" width="0.93" height="1.87"/>
<rect x="28" y="11.61" class="st1" width="1.87" height="0.93"/>
<rect x="28.81" y="14.65" transform="matrix(0.866 -0.5 0.5 0.866 -3.5708 16.8992)" class="st1" width="1.87" height="0.93"/>
<rect x="39.78" y="14.18" transform="matrix(0.4999 -0.8661 0.8661 0.4999 7.0405 42.4177)" class="st1" width="0.93" height="1.87"/>
<rect x="40.13" y="11.61" class="st1" width="1.87" height="0.93"/>
<rect x="39.32" y="8.58" transform="matrix(0.866 -0.5 0.5 0.866 0.8692 21.3391)" class="st1" width="1.87" height="0.93"/>
<rect x="37.1" y="6.36" transform="matrix(0.5004 -0.8658 0.8658 0.5004 13.09 36.3382)" class="st1" width="1.87" height="0.93"/>
</svg>
