<?xml version="1.0" encoding="utf-8"?>
<!-- Generator: Adobe Illustrator 23.1.1, SVG Export Plug-In . SVG Version: 6.00 Build 0)  -->
<svg version="1.1" id="Layer_1" xmlns="http://www.w3.org/2000/svg" xmlns:xlink="http://www.w3.org/1999/xlink" x="0px" y="0px"
	 viewBox="0 0 70 68" style="enable-background:new 0 0 70 68;" xml:space="preserve">
<style type="text/css">
	.st0{fill:#F6B347;}
	.st1{fill:#000B3A;}
	.st2{fill:none;stroke:#000B3A;stroke-width:2.22;stroke-miterlimit:10;}
	.st3{fill:none;stroke:#000B3A;stroke-width:2.22;stroke-linecap:round;stroke-linejoin:round;stroke-miterlimit:10;}
	.st4{fill:none;stroke:#FFFFFF;stroke-width:2.22;stroke-linecap:round;stroke-linejoin:round;stroke-miterlimit:10;}
	.st5{fill:none;stroke:#FFFFFF;stroke-width:2;stroke-miterlimit:10;}
	.st6{fill:#00135C;}
	.st7{fill:none;stroke:#4CA92C;stroke-width:7;stroke-linecap:round;stroke-linejoin:round;stroke-miterlimit:10;}
	.st8{fill:#FFFFFF;}
</style>
<g>
	<path class="st0" d="M61.99,20.97c0,2.57-2.08,4.65-4.65,4.65s-4.65-2.08-4.65-4.65c0-2.57,2.08-4.65,4.65-4.65
		S61.99,18.4,61.99,20.97"/>
	<path class="st1" d="M43.38,19.11c1.54,0,2.79-1.25,2.79-2.79c0-1.54-1.25-2.79-2.79-2.79c-1.54,0-2.79,1.25-2.79,2.79
		c0,0.46,0.12,0.88,0.31,1.26l-3.73,4.14l-1.39-2.18l-1.57,1l1.66,2.61l-1.61,1.79c-0.35-0.16-0.73-0.25-1.13-0.25
		c-0.43,0-0.83,0.11-1.2,0.28l-4.67-4.67c0.17-0.36,0.28-0.77,0.28-1.2c0-1.54-1.25-2.79-2.79-2.79c-1.54,0-2.79,1.25-2.79,2.79
		c0,0.48,0.13,0.93,0.35,1.33l-5.81,7.26c-0.33-0.14-0.68-0.21-1.06-0.21c-1.54,0-2.79,1.25-2.79,2.79c0,1.54,1.25,2.79,2.79,2.79
		c1.54,0,2.79-1.25,2.79-2.79c0-0.48-0.14-0.93-0.35-1.33l5.81-7.26c0.33,0.14,0.68,0.21,1.06,0.21c0.43,0,0.83-0.1,1.19-0.28
		l4.67,4.67c-0.17,0.37-0.28,0.77-0.28,1.2c0,1.54,1.25,2.79,2.79,2.79s2.79-1.25,2.79-2.79c0-0.46-0.12-0.88-0.31-1.26l1.3-1.44
		l3.81,5.99l1.57-1l-4.09-6.43l4.04-4.48C42.59,19.02,42.97,19.11,43.38,19.11 M15.46,31.21c-0.51,0-0.93-0.42-0.93-0.93
		c0-0.52,0.42-0.93,0.93-0.93c0.51,0,0.93,0.42,0.93,0.93C16.39,30.79,15.97,31.21,15.46,31.21 M23.83,19.11
		c0-0.51,0.42-0.93,0.93-0.93c0.51,0,0.93,0.42,0.93,0.93c0,0.51-0.42,0.93-0.93,0.93C24.25,20.04,23.83,19.62,23.83,19.11
		 M33.14,28.42c-0.51,0-0.93-0.42-0.93-0.93c0-0.52,0.42-0.93,0.93-0.93c0.51,0,0.93,0.42,0.93,0.93
		C34.07,28,33.65,28.42,33.14,28.42 M43.38,15.39c0.51,0,0.93,0.42,0.93,0.93c0,0.51-0.42,0.93-0.93,0.93
		c-0.51,0-0.93-0.42-0.93-0.93C42.45,15.8,42.86,15.39,43.38,15.39"/>
	<path class="st0" d="M62.92,45.17v-12.8c0-2.87-2.07-5.45-4.93-5.77c-1.23-0.14-2.4,0.12-3.38,0.67c-0.13,0.07-7.51,4.87-7.51,4.87
		l-4.19-4.19c-0.77-0.77-2.02-0.77-2.79,0c-0.77,0.77-0.77,2.02,0,2.79l4.78,4.78c0.76,0.77,1.92,0.98,2.91,0.54l3.94-1.75v10.86
		H62.92z"/>
	<path class="st1" d="M63.85,5.15H6.15v5.58h2.79v39.09h3.81c0.31,1.85,1.54,3.4,3.2,4.15c-2.46,0.93-4.21,3.31-4.21,6.09v2.79
		h13.03v-2.79c0-2.78-1.76-5.15-4.21-6.09c1.66-0.76,2.89-2.3,3.2-4.15h5.75c0.31,1.85,1.54,3.4,3.2,4.15
		c-2.46,0.93-4.21,3.31-4.21,6.09v2.79h13.03v-2.79c0-2.78-1.76-5.15-4.21-6.09c1.66-0.76,2.89-2.3,3.2-4.15h5.75
		c0.31,1.85,1.54,3.4,3.2,4.15c-2.46,0.93-4.21,3.31-4.21,6.09v2.79h13.03v-2.79c0-2.78-1.76-5.15-4.21-6.09
		c1.93-0.88,3.28-2.82,3.28-5.08c0-3.08-2.5-5.58-5.58-5.58c-2.76,0-5.06,2.02-5.5,4.65H40.5c-0.45-2.63-2.74-4.65-5.5-4.65
		c-2.76,0-5.05,2.02-5.5,4.65h-5.75c-0.45-2.63-2.74-4.65-5.5-4.65c-2.76,0-5.06,2.02-5.5,4.65H10.8V10.73H59.2v4.65h1.86v-4.65
		h2.79V5.15z M56.41,60.06v0.93H47.1v-0.93c0-2.57,2.09-4.65,4.65-4.65C54.32,55.41,56.41,57.49,56.41,60.06 M51.75,45.17
		c2.05,0,3.72,1.67,3.72,3.72c0,2.05-1.67,3.72-3.72,3.72c-2.05,0-3.72-1.67-3.72-3.72C48.03,46.84,49.7,45.17,51.75,45.17
		 M39.65,60.06v0.93h-9.31v-0.93c0-2.57,2.09-4.65,4.65-4.65C37.57,55.41,39.65,57.49,39.65,60.06 M35,45.17
		c2.05,0,3.72,1.67,3.72,3.72c0,2.05-1.67,3.72-3.72,3.72c-2.05,0-3.72-1.67-3.72-3.72C31.28,46.84,32.95,45.17,35,45.17
		 M22.9,60.06v0.93h-9.3v-0.93c0-2.57,2.09-4.65,4.65-4.65C20.81,55.41,22.9,57.49,22.9,60.06 M18.25,45.17
		c2.05,0,3.72,1.67,3.72,3.72c0,2.05-1.67,3.72-3.72,3.72c-2.05,0-3.72-1.67-3.72-3.72C14.53,46.84,16.19,45.17,18.25,45.17
		 M61.99,8.87H8.01V7.01h53.98V8.87z"/>
	<rect x="21.04" y="34.93" class="st1" width="14.89" height="1.86"/>
	<rect x="23.83" y="38.65" class="st1" width="12.1" height="1.86"/>
</g>
</svg>
