<svg version="1.1" id="Layer_1" xmlns="http://www.w3.org/2000/svg" x="0" y="0" viewBox="0 0 197.07 82.25" xml:space="preserve"><style>.st0{fill:#ea9023}.st2{fill:#6d6e70}</style><path class="st0" d="M83.61 19.76c-1.85-1.85-4.41-2.78-7.69-2.78H65.03c-3.28 0-6.31.93-9.1 2.78-2.79 1.86-4.52 4.1-5.19 6.73l-5.91 23.26c-.67 2.63-.08 4.88 1.77 6.73 1.85 1.86 4.41 2.78 7.69 2.78h10.89c3.28 0 6.31-.93 9.1-2.78 2.79-1.86 4.52-4.1 5.19-6.73l5.91-23.26c.66-2.63.08-4.88-1.77-6.73M72.19 28.6l-4.84 19.03c-.54 2.11-1.86 3.17-3.97 3.17h-3.02c-2.11 0-2.89-1.06-2.35-3.17l4.84-19.03c.54-2.11 1.86-3.17 3.97-3.17h3.02c2.11 0 2.89 1.06 2.35 3.17M195.02 50.8h-22.41c-.84 0-1.16-.42-.94-1.27l7.95-31.29c.21-.85-.1-1.27-.94-1.27H168.4c-.73 0-1.2.42-1.41 1.27l-8.01 31.5c-.67 2.63-.08 4.87 1.77 6.73 1.85 1.86 4.41 2.78 7.69 2.78h24.44c.84 0 1.37-.42 1.59-1.27l1.5-5.92c.04-.16.06-.31.07-.45v-.03c-.02-.52-.35-.78-1.02-.78M153.79 33.89h-14.05c-.56 0-.77-.28-.63-.85l1.72-6.77c.14-.56.5-.85 1.06-.85h16.86c.84 0 1.37-.42 1.59-1.27l1.5-5.92c.22-.85-.1-1.27-.94-1.27h-29.08c-.84 0-1.37.42-1.59 1.27l-8.01 31.5c-.67 2.63-.08 4.88 1.77 6.73 1.85 1.86 4.41 2.78 7.69 2.78h19.35c.84 0 1.37-.42 1.59-1.27l1.5-5.92c.22-.84-.1-1.27-.94-1.27h-14.01c-3.04 0-4.18-1.53-3.4-4.58l.77-3.03c.14-.56.5-.85 1.06-.85h14.05c.84 0 1.37-.42 1.59-1.27l1.51-5.92c.2-.82-.11-1.24-.96-1.24M122.11 19.76c-1.85-1.86-4.41-2.78-7.69-2.78h-21.1c-.84 0-1.37.42-1.59 1.27L81.63 58c-.22.85.1 1.27.94 1.27h10.11c.84 0 1.37-.42 1.59-1.27l3.05-11.98c.14-.56.5-.85 1.06-.85h8.89c3.28 0 6.31-.93 9.1-2.78 2.79-1.86 4.52-4.1 5.19-6.73l2.33-9.16c.66-2.64.07-4.89-1.78-6.74m-11.13 7.71l-1.79 7.05c-.42 1.64-1.45 2.47-3.08 2.47h-5.65c-.56 0-.77-.28-.63-.85l2.62-10.29c.14-.56.5-.85 1.06-.85h5.65c1.63.01 2.24.83 1.82 2.47"/><path fill-rule="evenodd" clip-rule="evenodd" fill="#6d6e70" d="M29.13 1.41H1.04v10.94h25.58L15.36 61.54l11.08.01 13.95-60.2z"/><path class="st0" d="M39.9 37.07l-.32-.51-.17.73z"/><path class="st0" d="M42.29 28.39l.09.12c.1.13.1.3 0 .39l-.1.06c-.03.03-.06.05-.11.06l-.02.01-.96.56-1.38 5.97.81 1.28c.06.02.11.05.16.11l.09.12c.1.13.1.3 0 .39l-.04.02c-.04.04-.08.08-.14.11l-.14.06c-.05.02-.09.02-.13.02l-1.2.53-4.07 17.61 3.39.02 10.65-45.31h18.69l.8-3.3h-22.3l-4.74 20.5.43.59c.07-.04.16 0 .22.08M35.91 40.28l.17-.73-.46.21zM39.55 24.86l.22-.94-.66.34z"/><path class="st0" d="M34.74 39.75c-.03-.04-.04-.09-.05-.14l-.03-.06c-.05-.13.04-.28.19-.34l.14-.05c.08-.03.16-.03.22-.01l1.08-.48 1.26-5.33-.89-1.42-.01-.01-.09-.12c-.02-.03-.02-.06-.03-.09l-.07-.11c-.05-.13.04-.28.19-.34l.14-.05c.05-.02.11-.02.16-.02l1.3-.75 1.1-4.66-.95-1.28c-.04-.02-.07-.05-.1-.08l-.1-.11c-.03-.04-.03-.08-.04-.12l-.06-.08c-.05-.13.04-.28.19-.34l.14-.06c.07-.03.13-.03.19-.01l1.37-.71 4.37-18.51h24.82l.8-3.3H45.14l.01-.06-3.57.06-12.73 54.6 3.39.02 3.41-14.45-.83-1.49-.08-.1z"/><path class="st0" d="M37.42 31.76l.37.58.21-.91z"/><path class="st2" d="M76.72 3.91c-1.03 0-1.74.66-1.96 1.55H44.97s-1.62 7.09-3.88 16.95v.02l-1.1.56-1.37.71a.408.408 0 00-.19.01l-.14.05c-.15.06-.24.21-.19.34l.06.08c.01.04.01.08.04.12l.09.12c.03.04.06.06.1.08l.95 1.28 2.08 2.82-3.18 1.84-1.3.75c-.05 0-.1 0-.16.02l-.14.05c-.15.06-.24.21-.19.34l.07.11c.01.03.01.06.03.09l.09.12.01.01.89 1.42 2.03 3.21.33.52-.5.22-3.12 1.38-1.08.48a.333.333 0 00-.22.01l-.14.05c-.15.06-.24.21-.19.34l.03.06c.01.05.02.1.05.14l.09.11.83 1.49.72 1.3c-2.8 12.21-3.48 15.33-4.26 18.8-.05 0-.11-.02-.16-.02-1.11 0-2.02.91-2.02 2.03 0 1.12.9 2.02 2.02 2.02 1.11 0 2.02-.91 2.02-2.02 0-.81-.48-1.51-1.17-1.83.78-3.38 1.49-6.47 4.4-18.98 0-.02-.02-.05-.05-.08 0-.03 0-.07-.01-.1l-1.22-2.2-.29-.53.47-.21 3.12-1.38 1.2-.53c.04 0 .09 0 .13-.02l.14-.06a.3.3 0 00.14-.11l.04-.02c.1-.09.11-.26 0-.39l-.09-.12a.355.355 0 00-.16-.11l-.81-1.28-2.03-3.21-.37-.58.59-.3 3.19-1.85.96-.56.02-.01c.04-.02.08-.04.11-.06l.1-.06c.1-.08.11-.26 0-.39l-.09-.12a.294.294 0 00-.23-.12l-.43-.59-2.08-2.82-.44-.6.66-.34 1.87-.96c.08.04.15.06.15.03l.06-.27v-.01c1.81-7.78 3.27-14.1 3.8-16.36h29.09c.19.91.93 1.6 1.97 1.6s2.01-.91 2.01-2.02c.01-1.11-.97-2.01-2-2.01M20.89 67.43h-5.92l-.83 4.31h5.17l-.14.73h-5.18l-.94 4.77h6l-.14.73h-6.86l2.22-11.27h6.78zM23.8 77.97H23l1.62-8.29h.7l-.13 1.21c1.04-.76 2.25-1.38 3.49-1.38 1.66 0 2.31.86 1.96 2.65l-1.14 5.8h-.8l1.11-5.67c.23-1.14-.01-2.12-1.57-2.12-1.24 0-2.52.81-3.17 1.29l-1.27 6.51zM35.16 74.76c-.03 1.16.28 2.75 2.6 2.75 1.04 0 1.76-.1 2.57-.35v.6c-1.04.3-1.73.38-2.71.38-2.84 0-3.36-1.89-3.27-3.53.15-2.65 1.64-5.09 4.79-5.09 1.87 0 2.71 1.01 2.65 2.07-.03.83-.44 2.82-6.63 3.17m.03-.6c5.52-.33 5.83-1.91 5.86-2.49.04-.8-.54-1.59-2.03-1.59-2.6 0-3.63 2.07-3.83 4.08M45.59 77.97h-.8l1.62-8.29h.7l-.18 1.43h.03c1.01-.93 2.28-1.59 3.54-1.59l-.16.76c-1.41 0-2.8.81-3.51 1.31l-1.24 6.38zM57.7 77.08h-.03c-.76.58-1.73 1-2.79 1-1.94 0-2.67-1.41-2.57-3.35.16-2.88 1.77-5.21 4.77-5.21 1.11 0 2.11.27 2.78.66l-1.6 8.14c-.32 1.66-1.85 2.8-3.92 2.8-1.04 0-1.77-.1-2.7-.35l.25-.6c1.11.3 1.94.33 2.47.33 1.97 0 2.92-1.21 3.11-2.21l.23-1.21zm1.27-6.48c-.55-.32-1.25-.48-2-.48-2.5 0-3.68 2.11-3.81 4.44-.09 1.58.45 2.85 2.11 2.85 1.11 0 2.05-.55 2.54-.9l1.16-5.91zM65.14 69.68l-1.62 8.29h-.8l1.62-8.29h.8zm.04-2.22c.31 0 .49.15.47.41-.02.35-.28.55-.66.55-.31 0-.49-.15-.47-.41.02-.35.28-.55.66-.55M73.73 77.15h-.03c-.76.58-1.75 1-2.81 1-1.92 0-2.65-1.51-2.54-3.45.16-2.84 1.77-5.17 4.78-5.17 1.11 0 2.09.27 2.77.66l-1.53 7.79h-.7l.06-.83zm-2.44.33c1.11 0 2.05-.55 2.55-.9L75 70.59c-.55-.32-1.23-.48-2-.48-2.5 0-3.69 2.14-3.82 4.48-.07 1.58.47 2.89 2.11 2.89M85.73 70.48c-1.04-.32-1.82-.38-2.37-.38-2.04 0-2.6 1.08-2.63 1.67-.11 1.97 4.43 1.41 4.3 3.83-.09 1.56-1.57 2.54-3.66 2.54-1.04 0-1.97-.1-2.9-.35l.27-.61c1.09.32 2.12.38 2.65.38 2.26 0 2.68-1.33 2.7-1.81.11-1.97-4.42-1.38-4.28-3.83.08-1.44 1.46-2.4 3.6-2.4 1.04 0 1.64.1 2.57.35l-.25.61zM101.54 77.97l-2.05-4.81h-3.25l-.95 4.81h-.86l2.22-11.28h4.48c1.87 0 2.76 1.26 2.68 2.8-.1 1.87-1.37 3.38-3.39 3.63l2.1 4.84h-.98zm-5.16-5.53h3.55c1.74 0 2.92-1.16 3.01-2.85.07-1.26-.66-2.16-1.97-2.16h-3.62l-.97 5.01zM107.15 74.76c-.03 1.16.28 2.75 2.6 2.75 1.04 0 1.76-.1 2.57-.35v.6c-1.04.3-1.73.38-2.71.38-2.84 0-3.36-1.89-3.27-3.53.15-2.65 1.64-5.09 4.79-5.09 1.87 0 2.71 1.01 2.65 2.07-.04.83-.45 2.82-6.63 3.17m.03-.6c5.52-.33 5.83-1.91 5.86-2.49.04-.8-.54-1.59-2.03-1.59-2.61 0-3.64 2.07-3.83 4.08M117.58 77.97h-.8l1.62-8.29h.7l-.13 1.21c1.04-.76 2.25-1.38 3.49-1.38 1.66 0 2.31.86 1.96 2.65l-1.14 5.8h-.8l1.11-5.67c.23-1.14-.01-2.12-1.57-2.12-1.24 0-2.52.81-3.17 1.29l-1.27 6.51zM128.13 74.61c.14-2.59 1.66-5.09 4.53-5.09 2.12 0 2.93 1.59 2.82 3.53-.14 2.59-1.66 5.09-4.51 5.09-2.12 0-2.95-1.59-2.84-3.53m.83 0c-.09 1.59.47 2.93 2.12 2.93 2.39 0 3.45-2.34 3.57-4.49.09-1.58-.45-2.94-2.11-2.94-2.38 0-3.46 2.34-3.58 4.5M140.69 78.06l-1.59-8.38h.9l.96 5.01.38 2.52h.05l1.38-2.52 2.9-5.01h.88l-4.9 8.38zM153.74 77.15h-.03c-.76.58-1.75 1-2.81 1-1.92 0-2.65-1.51-2.54-3.45.16-2.84 1.76-5.17 4.78-5.17 1.11 0 2.09.27 2.77.66l-1.53 7.79h-.7l.06-.83zm-2.44.33c1.11 0 2.05-.55 2.55-.9l1.16-5.99c-.55-.32-1.23-.48-2-.48-2.5 0-3.68 2.14-3.82 4.48-.07 1.58.47 2.89 2.11 2.89m1.72-8.46l-.24-.41 2.54-1.86.27.55-2.57 1.72zM160.92 78.06l-1.59-8.38h.9l.96 5.01.38 2.52h.05l1.38-2.52 2.9-5.01h.88l-4.9 8.38zM169.41 74.76c-.03 1.16.28 2.75 2.6 2.75 1.04 0 1.76-.1 2.57-.35v.6c-1.04.3-1.73.38-2.71.38-2.84 0-3.36-1.89-3.27-3.53.15-2.65 1.64-5.09 4.79-5.09 1.87 0 2.71 1.01 2.65 2.07-.03.83-.44 2.82-6.63 3.17m.04-.6c5.52-.33 5.83-1.91 5.86-2.49.04-.8-.54-1.59-2.03-1.59-2.61 0-3.64 2.07-3.83 4.08M181.47 69.68l-1.62 8.29h-.8l1.62-8.29h.8zm.04-2.22c.31 0 .49.15.47.41-.02.35-.28.55-.66.55-.31 0-.49-.15-.47-.41.02-.35.28-.55.66-.55M191.21 70.48c-1.04-.32-1.82-.38-2.37-.38-2.04 0-2.6 1.08-2.63 1.67-.11 1.97 4.43 1.41 4.3 3.83-.09 1.56-1.57 2.54-3.66 2.54-1.04 0-1.97-.1-2.9-.35l.27-.61c1.09.32 2.12.38 2.65.38 2.26 0 2.68-1.33 2.7-1.81.11-1.97-4.42-1.38-4.28-3.83.08-1.44 1.46-2.4 3.6-2.4 1.05 0 1.64.1 2.57.35l-.25.61z"/></svg>