<?xml version="1.0" encoding="utf-8"?>
<!-- Generator: Adobe Illustrator 24.0.0, SVG Export Plug-In . SVG Version: 6.00 Build 0)  -->
<svg version="1.1" id="Layer_1" xmlns="http://www.w3.org/2000/svg" xmlns:xlink="http://www.w3.org/1999/xlink" x="0px" y="0px"
	 viewBox="0 0 607.89 256.28" style="enable-background:new 0 0 607.89 256.28;" xml:space="preserve">
<style type="text/css">
	.st0{fill:#EA9023;}
	.st1{fill-rule:evenodd;clip-rule:evenodd;fill:#6D6E70;}
	.st2{fill:#6D6E70;}
</style>
<g>
	<path class="st0" d="M258.2,64.56c-5.66-5.68-13.51-8.53-23.55-8.53h-33.36c-10.04,0-19.34,2.85-27.89,8.53
		c-8.54,5.69-13.85,12.56-15.89,20.62l-18.11,71.26c-2.05,8.06-0.25,14.94,5.41,20.62c5.66,5.69,13.51,8.53,23.55,8.53h33.36
		c10.04,0,19.34-2.84,27.89-8.53c8.55-5.69,13.85-12.56,15.9-20.62l18.11-71.26C265.66,77.12,263.85,70.25,258.2,64.56
		 M223.22,91.66l-14.82,58.31c-1.65,6.48-5.7,9.72-12.16,9.72h-9.25c-6.46,0-8.86-3.24-7.21-9.72l14.82-58.31
		c1.64-6.48,5.7-9.72,12.15-9.72H216C222.46,81.95,224.86,85.19,223.22,91.66"/>
	<path class="st0" d="M599.59,159.69h-68.66c-2.58,0-3.54-1.3-2.89-3.88l24.37-95.88c0.66-2.59-0.31-3.89-2.89-3.89H518
		c-2.22,0-3.67,1.3-4.33,3.89l-24.54,96.53c-2.05,8.06-0.24,14.94,5.41,20.62c5.66,5.69,13.51,8.53,23.56,8.53H593
		c2.58,0,4.2-1.3,4.86-3.89l4.61-18.14c0.13-0.51,0.19-0.96,0.2-1.37v-0.1C602.65,160.5,601.63,159.69,599.59,159.69"/>
	<path class="st0" d="M473.25,107.86h-43.05c-1.72,0-2.37-0.86-1.92-2.59l5.27-20.73c0.44-1.73,1.52-2.59,3.24-2.59h51.66
		c2.58,0,4.2-1.3,4.86-3.89l4.61-18.14c0.66-2.59-0.3-3.89-2.89-3.89h-89.1c-2.58,0-4.2,1.3-4.86,3.89l-24.53,96.53
		c-2.05,8.06-0.25,14.94,5.41,20.62c5.66,5.69,13.5,8.53,23.55,8.53h59.3c2.59,0,4.21-1.3,4.86-3.89l4.61-18.14
		c0.66-2.59-0.3-3.89-2.89-3.89h-42.94c-9.33,0-12.8-4.68-10.42-14.03l2.36-9.29c0.44-1.72,1.52-2.59,3.24-2.59h43.05
		c2.58,0,4.2-1.29,4.86-3.89l4.61-18.14C476.8,109.16,475.84,107.86,473.25,107.86"/>
	<path class="st0" d="M376.18,64.56c-5.66-5.68-13.51-8.53-23.55-8.53h-64.68c-2.58,0-4.2,1.3-4.86,3.89l-30.96,121.79
		c-0.66,2.59,0.3,3.89,2.89,3.89h30.99c2.58,0,4.2-1.3,4.86-3.89L300.2,145c0.44-1.73,1.52-2.59,3.24-2.59h27.23
		c10.04,0,19.34-2.84,27.89-8.53c8.55-5.69,13.85-12.56,15.89-20.62l7.14-28.07C383.64,77.12,381.84,70.25,376.18,64.56
		 M342.08,88.21l-5.49,21.6c-1.28,5.04-4.43,7.56-9.45,7.56h-17.33c-1.72,0-2.36-0.86-1.92-2.59l8.02-31.53
		c0.44-1.73,1.52-2.59,3.24-2.59h17.33C341.49,80.65,343.36,83.17,342.08,88.21"/>
	<polygon class="st1" points="91.27,8.33 5.21,8.33 5.21,41.88 83.59,41.88 49.08,192.58 83.03,192.63 125.75,8.15 	"/>
	<polygon class="st0" points="124.28,117.63 123.28,116.04 122.76,118.3 	"/>
	<path class="st0" d="M131.58,91.02l0.28,0.36c0.31,0.39,0.31,0.93-0.01,1.19l-0.3,0.18c-0.09,0.08-0.2,0.15-0.32,0.2l-0.05,0.02
		l-2.95,1.71l-4.23,18.3l2.47,3.91c0.18,0.06,0.35,0.16,0.48,0.33l0.28,0.36c0.31,0.39,0.31,0.93-0.01,1.19l-0.13,0.06
		c-0.11,0.14-0.25,0.26-0.43,0.32l-0.43,0.17c-0.14,0.05-0.27,0.07-0.41,0.07l-3.68,1.63l-12.47,53.96l10.4,0.05L152.7,36.16h57.27
		l2.46-10.11h-68.34l-14.52,62.81l1.32,1.8C131.14,90.66,131.4,90.78,131.58,91.02"/>
	<polygon class="st0" points="112.05,127.46 112.58,125.22 111.15,125.85 	"/>
	<polygon class="st0" points="123.2,80.21 123.88,77.33 121.85,78.37 	"/>
	<path class="st0" d="M108.45,125.81c-0.1-0.13-0.12-0.28-0.15-0.42l-0.1-0.17c-0.15-0.38,0.11-0.84,0.59-1.03l0.43-0.17
		c0.24-0.09,0.48-0.1,0.68-0.03l3.31-1.46l3.85-16.33l-2.74-4.34c-0.01-0.01-0.03-0.02-0.04-0.03l-0.28-0.36
		c-0.07-0.08-0.06-0.18-0.1-0.27l-0.21-0.34c-0.15-0.38,0.11-0.84,0.58-1.03l0.43-0.17c0.16-0.07,0.32-0.07,0.48-0.06l3.98-2.3
		l3.37-14.27l-2.9-3.93c-0.11-0.06-0.22-0.15-0.31-0.26l-0.28-0.36c-0.09-0.11-0.09-0.24-0.13-0.36l-0.18-0.25
		c-0.15-0.38,0.11-0.85,0.59-1.03l0.43-0.17c0.2-0.08,0.41-0.08,0.59-0.04l4.21-2.16l13.38-56.71h76.05l2.46-10.11h-76.12l0.05-0.18
		l-10.93,0.18l-39,167.3l10.4,0.05l10.45-44.26l-2.55-4.57L108.45,125.81z"/>
	<polygon class="st0" points="116.67,101.35 117.79,103.13 118.45,100.32 	"/>
	<path class="st2" d="M237.09,15.99c-3.16,0-5.35,2.02-6,4.75H139.8c0,0-4.98,21.72-11.9,51.93c-0.01,0.02,0.01,0.05,0.01,0.08
		l-3.36,1.73l-4.21,2.16c-0.19-0.04-0.39-0.04-0.59,0.04l-0.43,0.17c-0.47,0.18-0.73,0.64-0.58,1.03l0.18,0.25
		c0.04,0.12,0.04,0.25,0.13,0.36l0.28,0.36c0.09,0.11,0.2,0.19,0.31,0.26l2.9,3.93l6.37,8.64l-9.73,5.63l-3.98,2.3
		c-0.15-0.01-0.32-0.01-0.48,0.06l-0.43,0.17c-0.47,0.18-0.73,0.64-0.58,1.03l0.21,0.34c0.04,0.09,0.03,0.19,0.1,0.27l0.28,0.36
		c0.01,0.01,0.03,0.02,0.04,0.03l2.74,4.34l6.22,9.85l1,1.58l-1.52,0.67l-9.55,4.22l-3.31,1.46c-0.2-0.07-0.45-0.06-0.68,0.03
		l-0.43,0.17c-0.47,0.18-0.74,0.64-0.59,1.03l0.1,0.17c0.04,0.14,0.05,0.29,0.15,0.42l0.28,0.35l2.54,4.57l2.22,3.99
		c-8.58,37.42-10.67,46.96-13.06,57.61c-0.17-0.01-0.33-0.05-0.5-0.05c-3.41,0-6.18,2.78-6.18,6.21c0,3.43,2.77,6.2,6.18,6.2
		c3.41,0,6.18-2.78,6.18-6.2c0-2.49-1.47-4.63-3.59-5.62c2.39-10.37,4.57-19.82,13.47-58.15c0.01-0.05-0.06-0.14-0.16-0.23
		c0.01-0.1,0-0.2-0.04-0.3l-3.75-6.73l-0.9-1.61l1.42-0.63l9.56-4.23l3.68-1.63c0.13,0,0.27-0.01,0.41-0.07l0.43-0.17
		c0.18-0.07,0.32-0.19,0.43-0.32l0.13-0.06c0.32-0.26,0.33-0.79,0.01-1.19l-0.28-0.36c-0.13-0.17-0.3-0.27-0.48-0.33l-2.47-3.91
		l-6.21-9.83l-1.12-1.78l1.79-1.03l9.77-5.65l2.95-1.71l0.05-0.02c0.12-0.05,0.23-0.12,0.32-0.2l0.3-0.18
		c0.32-0.26,0.33-0.79,0.01-1.18l-0.28-0.36c-0.19-0.23-0.45-0.35-0.69-0.37l-1.32-1.8l-6.37-8.64l-1.35-1.83l2.03-1.04l5.72-2.93
		c0.25,0.14,0.45,0.2,0.47,0.1c0.07-0.28,0.13-0.56,0.2-0.84c0-0.02,0.01-0.02,0.01-0.04c5.54-23.85,10.03-43.2,11.64-50.13h89.15
		c0.6,2.8,2.85,4.9,6.04,4.9c3.19,0,6.17-2.78,6.17-6.2C243.26,18.77,240.24,15.99,237.09,15.99"/>
	<polygon class="st2" points="66.03,210.64 47.89,210.64 45.32,223.85 61.17,223.85 60.74,226.08 44.89,226.08 41.99,240.72 
		60.38,240.72 59.95,242.95 38.92,242.95 45.72,208.4 66.51,208.4 	"/>
	<path class="st2" d="M74.94,242.95H72.5l4.98-25.4h2.13l-0.41,3.71c3.18-2.34,6.89-4.22,10.7-4.22c5.08,0,7.07,2.64,6,8.13
		l-3.48,17.78h-2.44l3.41-17.38c0.71-3.51-0.04-6.5-4.82-6.5c-3.81,0-7.71,2.49-9.72,3.96L74.94,242.95z"/>
	<path class="st2" d="M109.74,233.09c-0.1,3.56,0.85,8.43,7.96,8.43c3.2,0,5.4-0.31,7.88-1.07l0,1.83c-3.2,0.91-5.3,1.17-8.3,1.17
		c-8.69,0-10.29-5.79-10.01-10.82c0.46-8.13,5.04-15.6,14.69-15.6c5.74,0,8.31,3.1,8.13,6.35
		C129.96,225.93,128.7,232.03,109.74,233.09 M109.84,231.27c16.93-1.02,17.86-5.84,17.96-7.62c0.14-2.44-1.66-4.88-6.23-4.88
		C113.59,218.77,110.44,225.12,109.84,231.27"/>
	<path class="st2" d="M141.71,242.95h-2.44l4.98-25.4h2.13l-0.55,4.37h0.1c3.11-2.85,6.98-4.88,10.84-4.88l-0.49,2.34
		c-4.32,0-8.57,2.49-10.74,4.01L141.71,242.95z"/>
	<path class="st2" d="M178.8,240.21h-0.1c-2.33,1.78-5.3,3.05-8.55,3.05c-5.95,0-8.19-4.32-7.86-10.26
		c0.49-8.84,5.41-15.96,14.61-15.96c3.4,0,6.46,0.81,8.53,2.03l-4.9,24.95c-0.99,5.08-5.66,8.59-12.01,8.59
		c-3.2,0-5.42-0.31-8.27-1.07l0.76-1.83c3.4,0.91,5.94,1.02,7.56,1.02c6.05,0,8.95-3.71,9.52-6.76L178.8,240.21z M182.71,220.34
		c-1.67-0.97-3.83-1.47-6.12-1.47c-7.67,0-11.29,6.45-11.69,13.62c-0.27,4.83,1.39,8.74,6.47,8.74c3.4,0,6.29-1.68,7.77-2.74
		L182.71,220.34z"/>
	<path class="st2" d="M201.62,217.55l-4.98,25.4h-2.44l4.98-25.4H201.62z M201.74,210.74c0.96,0,1.5,0.46,1.45,1.27
		c-0.06,1.07-0.86,1.68-2.02,1.68c-0.96,0-1.5-0.46-1.45-1.27C199.78,211.35,200.57,210.74,201.74,210.74"/>
	<path class="st2" d="M227.93,240.41h-0.1c-2.33,1.78-5.35,3.05-8.61,3.05c-5.89,0-8.12-4.62-7.79-10.57
		c0.49-8.69,5.41-15.85,14.66-15.85c3.4,0,6.41,0.81,8.47,2.03l-4.69,23.88h-2.14L227.93,240.41z M220.45,241.43
		c3.4,0,6.29-1.68,7.82-2.74l3.57-18.34c-1.67-0.97-3.78-1.47-6.12-1.47c-7.67,0-11.29,6.56-11.69,13.72
		C213.77,237.41,215.42,241.43,220.45,241.43"/>
	<path class="st2" d="M264.69,219.99c-3.2-0.97-5.58-1.17-7.25-1.17c-6.25,0-7.96,3.3-8.06,5.13c-0.34,6.05,13.58,4.32,13.17,11.74
		c-0.27,4.78-4.8,7.78-11.21,7.78c-3.2,0-6.03-0.31-8.88-1.07l0.82-1.88c3.35,0.97,6.49,1.17,8.12,1.17c6.91,0,8.2-4.06,8.29-5.54
		c0.34-6.05-13.53-4.22-13.11-11.74c0.25-4.42,4.48-7.37,11.03-7.37c3.2,0,5.01,0.3,7.87,1.07L264.69,219.99z"/>
	<path class="st2" d="M313.15,242.95l-6.29-14.74h-9.96L294,242.95h-2.64l6.81-34.55h13.72c5.74,0,8.47,3.86,8.21,8.59
		c-0.32,5.74-4.19,10.37-10.38,11.13l6.44,14.84H313.15z M297.33,225.98h10.87c5.34,0,8.94-3.56,9.23-8.74
		c0.21-3.86-2.02-6.61-6.03-6.61h-11.08L297.33,225.98z"/>
	<path class="st2" d="M330.32,233.09c-0.1,3.56,0.85,8.43,7.96,8.43c3.2,0,5.4-0.31,7.88-1.07v1.83c-3.2,0.91-5.3,1.17-8.3,1.17
		c-8.69,0-10.3-5.79-10.01-10.82c0.45-8.13,5.04-15.6,14.69-15.6c5.74,0,8.31,3.1,8.13,6.35
		C350.54,225.93,349.28,232.03,330.32,233.09 M330.42,231.27c16.93-1.02,17.86-5.84,17.96-7.62c0.14-2.44-1.66-4.88-6.23-4.88
		C334.17,218.77,331.02,225.12,330.42,231.27"/>
	<path class="st2" d="M362.29,242.95h-2.44l4.98-25.4h2.14l-0.41,3.71c3.18-2.34,6.89-4.22,10.7-4.22c5.08,0,7.07,2.64,6,8.13
		l-3.48,17.78h-2.44l3.41-17.38c0.71-3.51-0.04-6.5-4.82-6.5c-3.81,0-7.71,2.49-9.72,3.96L362.29,242.95z"/>
	<path class="st2" d="M394.62,232.64c0.44-7.93,5.09-15.6,13.88-15.6c6.5,0,8.97,4.88,8.64,10.82c-0.44,7.93-5.09,15.6-13.83,15.6
		C396.81,243.46,394.29,238.58,394.62,232.64 M397.16,232.64c-0.27,4.88,1.43,8.99,6.51,8.99c7.32,0,10.56-7.16,10.93-13.77
		c0.27-4.83-1.38-8.99-6.46-8.99C400.83,218.87,397.53,226.03,397.16,232.64"/>
	<polygon class="st2" points="433.11,243.21 428.24,217.55 430.99,217.55 433.94,232.89 435.08,240.61 435.23,240.61 439.48,232.89 
		448.36,217.55 451.06,217.55 436.05,243.21 	"/>
	<path class="st2" d="M473.1,240.41H473c-2.33,1.78-5.35,3.05-8.6,3.05c-5.89,0-8.13-4.62-7.79-10.57
		c0.48-8.69,5.41-15.85,14.65-15.85c3.4,0,6.41,0.81,8.48,2.03l-4.69,23.88h-2.14L473.1,240.41z M465.63,241.43
		c3.41,0,6.29-1.68,7.83-2.74l3.57-18.34c-1.67-0.97-3.78-1.47-6.12-1.47c-7.67,0-11.29,6.55-11.69,13.72
		C458.94,237.41,460.6,241.43,465.63,241.43 M470.88,215.51l-0.74-1.27l7.79-5.69l0.82,1.68L470.88,215.51z"/>
	<polygon class="st2" points="495.1,243.21 490.23,217.55 492.98,217.55 495.93,232.89 497.07,240.61 497.23,240.61 501.47,232.89 
		510.35,217.55 513.05,217.55 498.05,243.21 	"/>
	<path class="st2" d="M521.12,233.09c-0.1,3.56,0.85,8.43,7.96,8.43c3.2,0,5.4-0.31,7.88-1.07l0,1.83c-3.2,0.91-5.3,1.17-8.3,1.17
		c-8.69,0-10.3-5.79-10.01-10.82c0.46-8.13,5.04-15.6,14.69-15.6c5.74,0,8.31,3.1,8.13,6.35
		C541.34,225.93,540.08,232.03,521.12,233.09 M521.22,231.27c16.93-1.02,17.86-5.84,17.96-7.62c0.14-2.44-1.66-4.88-6.23-4.88
		C524.97,218.77,521.82,225.12,521.22,231.27"/>
	<path class="st2" d="M558.07,217.55l-4.98,25.4h-2.44l4.98-25.4H558.07z M558.2,210.74c0.96,0,1.5,0.46,1.45,1.27
		c-0.06,1.07-0.86,1.68-2.02,1.68c-0.97,0-1.5-0.46-1.45-1.27C556.23,211.35,557.03,210.74,558.2,210.74"/>
	<path class="st2" d="M587.91,219.99c-3.2-0.97-5.58-1.17-7.25-1.17c-6.25,0-7.96,3.3-8.06,5.13c-0.34,6.05,13.58,4.32,13.17,11.74
		c-0.27,4.78-4.8,7.78-11.21,7.78c-3.2,0-6.03-0.31-8.88-1.07l0.81-1.88c3.35,0.97,6.49,1.17,8.12,1.17c6.91,0,8.2-4.06,8.29-5.54
		c0.34-6.05-13.53-4.22-13.11-11.74c0.25-4.42,4.48-7.37,11.03-7.37c3.2,0,5.01,0.3,7.87,1.07L587.91,219.99z"/>
</g>
</svg>
