<?xml version="1.0" encoding="utf-8"?>
<!-- Generator: Adobe Illustrator 23.1.1, SVG Export Plug-In . SVG Version: 6.00 Build 0)  -->
<svg version="1.1" id="Layer_1" xmlns="http://www.w3.org/2000/svg" xmlns:xlink="http://www.w3.org/1999/xlink" x="0px" y="0px"
	 viewBox="0 0 70 68" style="enable-background:new 0 0 70 68;" xml:space="preserve">
<style type="text/css">
	.st0{fill:#F6B347;}
	.st1{fill:#000B3A;}
	.st2{fill:none;stroke:#000B3A;stroke-width:2.22;stroke-miterlimit:10;}
	.st3{fill:none;stroke:#000B3A;stroke-width:2.22;stroke-linecap:round;stroke-linejoin:round;stroke-miterlimit:10;}
	.st4{fill:none;stroke:#FFFFFF;stroke-width:2.22;stroke-linecap:round;stroke-linejoin:round;stroke-miterlimit:10;}
	.st5{fill:none;stroke:#FFFFFF;stroke-width:2;stroke-miterlimit:10;}
	.st6{fill:#00135C;}
	.st7{fill:none;stroke:#4CA92C;stroke-width:7;stroke-linecap:round;stroke-linejoin:round;stroke-miterlimit:10;}
	.st8{fill:#FFFFFF;}
</style>
<path class="st0" d="M35,17.25c-4.62,0-8.38,3.76-8.38,8.38c0,2.79,1.41,5.41,3.72,6.96v3.28h9.31v-3.28
	c2.31-1.55,3.72-4.17,3.72-6.96C43.38,21.01,39.62,17.25,35,17.25 M35,27.49c-1.03,0-1.86-0.83-1.86-1.86
	c0-1.03,0.83-1.86,1.86-1.86c1.03,0,1.86,0.83,1.86,1.86C36.86,26.65,36.03,27.49,35,27.49"/>
<path class="st1" d="M19.18,21.9c0-2.78-1.76-5.15-4.21-6.09c1.93-0.88,3.28-2.82,3.28-5.08c0-3.08-2.51-5.58-5.58-5.58
	c-3.08,0-5.58,2.51-5.58,5.58c0,2.26,1.35,4.2,3.28,5.08c-2.46,0.93-4.21,3.31-4.21,6.09v2.79h13.03V21.9z M8.94,10.73
	c0-2.05,1.67-3.72,3.72-3.72c2.05,0,3.72,1.67,3.72,3.72c0,2.05-1.67,3.72-3.72,3.72C10.61,14.46,8.94,12.79,8.94,10.73
	 M17.32,22.83H8.01V21.9c0-2.57,2.09-4.65,4.65-4.65c2.56,0,4.65,2.09,4.65,4.65V22.83z"/>
<path class="st1" d="M37.3,53.97c1.93-0.88,3.28-2.82,3.28-5.08c0-3.08-2.51-5.58-5.58-5.58c-3.08,0-5.58,2.51-5.58,5.58
	c0,2.26,1.35,4.2,3.28,5.08c-2.46,0.93-4.21,3.31-4.21,6.09v2.79h13.03v-2.79C41.51,57.28,39.76,54.91,37.3,53.97 M31.28,48.89
	c0-2.05,1.67-3.72,3.72-3.72s3.72,1.67,3.72,3.72c0,2.05-1.67,3.72-3.72,3.72S31.28,50.94,31.28,48.89 M39.65,60.99h-9.31v-0.93
	c0-2.57,2.09-4.65,4.65-4.65s4.65,2.09,4.65,4.65V60.99z"/>
<path class="st1" d="M59.64,15.81c1.93-0.88,3.28-2.82,3.28-5.08c0-3.08-2.5-5.58-5.58-5.58c-3.08,0-5.58,2.51-5.58,5.58
	c0,2.26,1.35,4.2,3.28,5.08c-2.46,0.93-4.21,3.31-4.21,6.09v2.79h13.03V21.9C63.85,19.12,62.09,16.75,59.64,15.81 M53.61,10.73
	c0-2.05,1.67-3.72,3.72-3.72s3.72,1.67,3.72,3.72c0,2.05-1.67,3.72-3.72,3.72S53.61,12.79,53.61,10.73 M61.99,22.83h-9.31V21.9
	c0-2.57,2.09-4.65,4.65-4.65s4.65,2.09,4.65,4.65V22.83z"/>
<rect x="37.97" y="36.79" transform="matrix(0.5635 -0.8261 0.8261 0.5635 -9.1827 58.067)" class="st1" width="24.78" height="1.86"/>
<rect x="18.71" y="25.33" transform="matrix(0.826 -0.5637 0.5637 0.826 -17.8468 17.6385)" class="st1" width="1.86" height="24.78"/>
<rect x="21.78" y="7.01" class="st1" width="26.43" height="1.86"/>
<path class="st1" d="M39.19,34h-3.26v-5.75c1.08-0.39,1.86-1.41,1.86-2.62c0-1.54-1.25-2.79-2.79-2.79c-1.54,0-2.79,1.25-2.79,2.79
	c0,1.21,0.78,2.24,1.86,2.62V34h-3.26c-1.29,0-2.33,1.04-2.33,2.33c0,0.83,0.44,1.55,1.09,1.96c-0.1,0.26-0.16,0.54-0.16,0.83
	c0,1.28,1.04,2.33,2.33,2.33h6.52c1.28,0,2.33-1.04,2.33-2.33c0-0.29-0.06-0.57-0.16-0.83c0.65-0.41,1.09-1.14,1.09-1.96
	C41.52,35.04,40.47,34,39.19,34 M35,24.69c0.52,0,0.93,0.42,0.93,0.93c0,0.51-0.42,0.93-0.93,0.93c-0.51,0-0.93-0.42-0.93-0.93
	C34.07,25.11,34.49,24.69,35,24.69 M30.81,35.86h8.38c0.26,0,0.46,0.21,0.46,0.47c0,0.26-0.21,0.47-0.46,0.47h-8.38
	c-0.26,0-0.47-0.21-0.47-0.47C30.35,36.07,30.56,35.86,30.81,35.86 M38.26,39.58h-6.52c-0.26,0-0.46-0.21-0.46-0.47
	c0-0.26,0.21-0.47,0.46-0.47h6.52c0.26,0,0.47,0.21,0.47,0.47C38.72,39.37,38.51,39.58,38.26,39.58"/>
<rect x="34.07" y="11.66" class="st1" width="1.86" height="3.72"/>
<rect x="28.02" y="13.29" transform="matrix(0.8662 -0.4997 0.4997 0.8662 -3.6955 16.4945)" class="st1" width="1.86" height="3.72"/>
<rect x="23.59" y="17.72" transform="matrix(0.5 -0.866 0.866 0.5 -4.6942 31.0272)" class="st1" width="1.86" height="3.72"/>
<rect x="21.04" y="24.69" class="st1" width="3.72" height="1.86"/>
<rect x="22.66" y="30.74" transform="matrix(0.8662 -0.4997 0.4997 0.8662 -12.5473 16.4927)" class="st1" width="3.72" height="1.86"/>
<rect x="44.55" y="29.81" transform="matrix(0.5001 -0.8659 0.8659 0.5001 -4.6953 55.2136)" class="st1" width="1.86" height="3.72"/>
<rect x="45.24" y="24.69" class="st1" width="3.72" height="1.86"/>
<rect x="43.62" y="18.64" transform="matrix(0.8663 -0.4996 0.4996 0.8663 -3.6972 25.3399)" class="st1" width="3.72" height="1.86"/>
<rect x="39.19" y="14.21" transform="matrix(0.4999 -0.8661 0.8661 0.4999 7.4108 43.1245)" class="st1" width="3.72" height="1.86"/>
</svg>
