<?xml version="1.0" encoding="utf-8"?>
<!-- Generator: Adobe Illustrator 23.1.1, SVG Export Plug-In . SVG Version: 6.00 Build 0)  -->
<svg version="1.1" id="Layer_1" xmlns="http://www.w3.org/2000/svg" xmlns:xlink="http://www.w3.org/1999/xlink" x="0px" y="0px"
	 viewBox="0 0 70 68" style="enable-background:new 0 0 70 68;" xml:space="preserve">
<style type="text/css">
	.st0{fill:#F6B347;}
	.st1{fill:#000B3A;}
	.st2{fill:none;stroke:#000B3A;stroke-width:2.22;stroke-miterlimit:10;}
	.st3{fill:none;stroke:#000B3A;stroke-width:2.22;stroke-linecap:round;stroke-linejoin:round;stroke-miterlimit:10;}
	.st4{fill:none;stroke:#FFFFFF;stroke-width:2.22;stroke-linecap:round;stroke-linejoin:round;stroke-miterlimit:10;}
	.st5{fill:none;stroke:#FFFFFF;stroke-width:2;stroke-miterlimit:10;}
	.st6{fill:#00135C;}
	.st7{fill:none;stroke:#4CA92C;stroke-width:7;stroke-linecap:round;stroke-linejoin:round;stroke-miterlimit:10;}
	.st8{fill:#FFFFFF;}
</style>
<path class="st1" d="M54.54,31.21H47.1v-3.49c-0.13-0.05-0.26-0.1-0.39-0.16l-2.47,2.47l-5.26-5.26l2.47-2.47
	c-0.06-0.13-0.11-0.26-0.16-0.39h-3.49v-7.45h3.49c0.05-0.13,0.11-0.26,0.16-0.39l-2.47-2.47l5.26-5.26l2.47,2.47
	c0.13-0.06,0.26-0.11,0.39-0.16V5.15h7.45v3.49c0.13,0.05,0.26,0.1,0.39,0.16l2.47-2.47l5.27,5.26l-2.47,2.47
	c0.06,0.13,0.11,0.26,0.16,0.39h3.49v7.45h-3.49c-0.05,0.13-0.1,0.26-0.16,0.39l2.47,2.47l-5.27,5.26l-2.47-2.47
	c-0.13,0.06-0.26,0.11-0.39,0.16V31.21z M48.96,29.35h3.72v-2.97l0.65-0.21c0.45-0.14,0.91-0.33,1.36-0.57l0.61-0.32l2.1,2.11
	l2.63-2.63l-2.11-2.1l0.32-0.61c0.24-0.45,0.43-0.91,0.57-1.36l0.21-0.65h2.97v-3.72h-2.97l-0.21-0.65
	c-0.14-0.45-0.33-0.91-0.57-1.36l-0.32-0.61l2.1-2.11L57.4,8.97l-2.11,2.11l-0.61-0.32c-0.45-0.24-0.91-0.43-1.36-0.57l-0.65-0.21
	V7.01h-3.72v2.97l-0.65,0.21c-0.45,0.14-0.91,0.33-1.36,0.57l-0.61,0.32l-2.11-2.11l-2.63,2.63l2.11,2.11l-0.32,0.61
	c-0.24,0.45-0.43,0.91-0.57,1.36l-0.21,0.65h-2.97v3.72h2.97l0.21,0.65c0.14,0.45,0.33,0.91,0.57,1.36l0.32,0.61l-2.11,2.1
	l2.63,2.63l2.11-2.11l0.61,0.32c0.45,0.24,0.91,0.43,1.36,0.57l0.65,0.21V29.35z"/>
<path class="st1" d="M54.54,62.85H47.1v-3.49c-0.13-0.05-0.26-0.1-0.39-0.16l-2.47,2.47l-5.26-5.26l2.47-2.47
	c-0.06-0.13-0.11-0.26-0.16-0.39h-3.49V46.1h3.49c0.05-0.13,0.11-0.26,0.16-0.39l-2.47-2.47l5.26-5.27l2.47,2.47
	c0.13-0.06,0.26-0.11,0.39-0.16v-3.49h7.45v3.49c0.13,0.05,0.26,0.1,0.39,0.16l2.47-2.47l5.27,5.27l-2.47,2.47
	c0.06,0.13,0.11,0.26,0.16,0.39h3.49v7.45h-3.49c-0.05,0.13-0.1,0.26-0.16,0.39l2.47,2.47l-5.27,5.26l-2.47-2.47
	c-0.13,0.06-0.26,0.11-0.39,0.16V62.85z M48.96,60.99h3.72v-2.97l0.65-0.21c0.45-0.14,0.91-0.33,1.36-0.57l0.61-0.32l2.1,2.11
	l2.63-2.63l-2.11-2.1l0.32-0.61c0.24-0.45,0.43-0.91,0.57-1.36l0.21-0.65h2.97v-3.72h-2.97l-0.21-0.65
	c-0.14-0.45-0.33-0.91-0.57-1.36l-0.32-0.61l2.1-2.1l-2.63-2.63l-2.11,2.11l-0.61-0.32c-0.45-0.24-0.91-0.43-1.36-0.57l-0.65-0.21
	v-2.97h-3.72v2.97l-0.65,0.21c-0.45,0.14-0.91,0.33-1.36,0.57l-0.61,0.32l-2.11-2.11l-2.63,2.63l2.11,2.1l-0.32,0.61
	c-0.24,0.45-0.43,0.91-0.57,1.36l-0.21,0.65h-2.97v3.72h2.97l0.21,0.65c0.14,0.45,0.33,0.91,0.57,1.36l0.32,0.61l-2.11,2.11
	l2.63,2.63l2.11-2.11l0.61,0.32c0.45,0.24,0.91,0.43,1.36,0.57l0.65,0.21V60.99z"/>
<path class="st1" d="M26.62,50.75h-7.44v-4.28c-0.86-0.26-1.68-0.6-2.47-1.02l-3.02,3.02l-5.26-5.26l3.03-3.02
	c-0.43-0.79-0.77-1.61-1.02-2.47H6.15v-7.44h4.28c0.26-0.85,0.6-1.68,1.02-2.47l-3.03-3.03l5.26-5.26l3.02,3.02
	c0.79-0.43,1.61-0.77,2.47-1.02v-4.28h7.44v4.28c0.85,0.26,1.68,0.6,2.47,1.02l3.02-3.02l5.27,5.26l-3.02,3.03
	c0.43,0.79,0.77,1.61,1.02,2.47h4.27v7.44h-4.27c-0.26,0.86-0.6,1.68-1.02,2.47l3.02,3.02l-5.27,5.26l-3.02-3.02
	c-0.79,0.43-1.61,0.77-2.47,1.02V50.75z M21.04,48.89h3.72v-3.86l0.72-0.17c1.16-0.27,2.26-0.73,3.28-1.36l0.63-0.39l2.73,2.73
	l2.63-2.63l-2.73-2.73l0.39-0.63c0.63-1.02,1.08-2.12,1.36-3.27l0.17-0.72h3.86v-3.72h-3.86l-0.17-0.72
	c-0.27-1.16-0.73-2.26-1.36-3.27l-0.39-0.63l2.73-2.73l-2.63-2.63l-2.73,2.73l-0.63-0.39c-1.02-0.63-2.12-1.08-3.27-1.36l-0.71-0.17
	v-3.86h-3.72v3.86l-0.72,0.17c-1.16,0.27-2.26,0.73-3.28,1.36l-0.63,0.39l-2.74-2.73l-2.63,2.63l2.73,2.73l-0.39,0.63
	c-0.63,1.02-1.08,2.12-1.36,3.27l-0.17,0.72H8.01v3.72h3.86l0.17,0.72c0.27,1.16,0.73,2.26,1.36,3.28l0.39,0.63l-2.73,2.73
	l2.63,2.63l2.73-2.73l0.63,0.39c1.02,0.63,2.12,1.08,3.27,1.36l0.72,0.17V48.89z"/>
<path class="st0" d="M50.82,18.18c-2.05,0-3.72-1.67-3.72-3.72c0-2.05,1.67-3.72,3.72-3.72c2.05,0,3.72,1.67,3.72,3.72
	C54.54,16.51,52.87,18.18,50.82,18.18"/>
<path class="st0" d="M55.47,24.69h-9.31v-1.86c0-2.57,2.09-4.65,4.65-4.65c2.57,0,4.65,2.09,4.65,4.65V24.69z"/>
<path class="st0" d="M50.82,49.82c-2.05,0-3.72-1.67-3.72-3.72s1.67-3.72,3.72-3.72c2.05,0,3.72,1.67,3.72,3.72
	S52.87,49.82,50.82,49.82"/>
<path class="st0" d="M55.47,56.34h-9.31v-1.86c0-2.57,2.09-4.65,4.65-4.65c2.57,0,4.65,2.09,4.65,4.65V56.34z"/>
<path class="st0" d="M22.9,34c-2.05,0-3.72-1.67-3.72-3.72s1.67-3.72,3.72-3.72c2.05,0,3.72,1.67,3.72,3.72S24.96,34,22.9,34"/>
<path class="st0" d="M27.55,40.51h-9.31v-1.86c0-2.57,2.09-4.65,4.65-4.65s4.65,2.09,4.65,4.65V40.51z"/>
<path class="st1" d="M16.39,34c0,0.52-0.42,0.93-0.93,0.93c-0.51,0-0.93-0.42-0.93-0.93c0-0.51,0.42-0.93,0.93-0.93
	C15.97,33.07,16.39,33.49,16.39,34"/>
<path class="st1" d="M31.28,34c0,0.52-0.42,0.93-0.93,0.93c-0.51,0-0.93-0.42-0.93-0.93c0-0.51,0.42-0.93,0.93-0.93
	C30.86,33.07,31.28,33.49,31.28,34"/>
</svg>
