<?xml version="1.0" encoding="utf-8"?>
<!-- Generator: Adobe Illustrator 23.1.1, SVG Export Plug-In . SVG Version: 6.00 Build 0)  -->
<svg version="1.1" id="Layer_1" xmlns="http://www.w3.org/2000/svg" xmlns:xlink="http://www.w3.org/1999/xlink" x="0px" y="0px"
	 viewBox="0 0 70 68" style="enable-background:new 0 0 70 68;" xml:space="preserve">
<style type="text/css">
	.st0{fill:#F6B347;}
	.st1{fill:#000B3A;}
	.st2{fill:none;stroke:#000B3A;stroke-width:2.22;stroke-miterlimit:10;}
	.st3{fill:none;stroke:#000B3A;stroke-width:2.22;stroke-linecap:round;stroke-linejoin:round;stroke-miterlimit:10;}
	.st4{fill:none;stroke:#FFFFFF;stroke-width:2.22;stroke-linecap:round;stroke-linejoin:round;stroke-miterlimit:10;}
	.st5{fill:none;stroke:#FFFFFF;stroke-width:2;stroke-miterlimit:10;}
	.st6{fill:#00135C;}
	.st7{fill:none;stroke:#4CA92C;stroke-width:7;stroke-linecap:round;stroke-linejoin:round;stroke-miterlimit:10;}
	.st8{fill:#FFFFFF;}
</style>
<path class="st1" d="M62.26,46.41c-1.01-0.91-2.36-1.36-3.73-1.22l-16.11,1.64c0.06-0.52,0.03-1.05-0.13-1.58
	c-0.62-2.1-2.83-3.31-4.93-2.71l-1.42,0.41V37.3l4.96-3.3c4.48-0.16,8.07-3.85,8.07-8.36V24.7h-0.93c-4.44,0-8.08,3.48-8.35,7.86
	l-3.75,2.5V20.98h-1.86v9.43l-3.75-2.5c-0.27-4.38-3.9-7.86-8.35-7.86h-0.93v0.93c0,4.51,3.6,8.2,8.07,8.36l4.96,3.3v10.85
	l-12.23,3.53h-7.31v-1.86H6.15v16.75h8.38v-0.8l12.91,1.72l13.34,0.01l20.11-8.38c1.81-0.75,2.97-2.5,2.97-4.46
	C63.85,48.63,63.27,47.33,62.26,46.41 M47.02,26.64c-0.43,2.79-2.64,4.99-5.43,5.43C42.03,29.28,44.23,27.08,47.02,26.64
	 M22.98,21.99c2.79,0.43,4.99,2.64,5.43,5.43C25.62,26.98,23.41,24.77,22.98,21.99 M12.67,60.05H8.01V47.02h4.65V60.05z
	 M60.16,52.74L40.4,60.98H27.62l-13.09-1.74V48.88h7.45l15.9-4.55c1.12-0.32,2.3,0.32,2.63,1.44c0.3,1.01-0.18,2.07-1.13,2.52
	l-11.28,5.33l0.8,1.68l11.28-5.33c0.6-0.28,1.09-0.7,1.46-1.2l17.09-1.74c0.85-0.09,1.66,0.18,2.29,0.75
	c0.63,0.57,0.98,1.35,0.98,2.21C61.99,51.2,61.27,52.28,60.16,52.74"/>
<path class="st0" d="M35,21.91c-4.62,0-8.38-3.76-8.38-8.38c0-4.62,3.76-8.38,8.38-8.38c4.62,0,8.38,3.76,8.38,8.38
	C43.38,18.15,39.62,21.91,35,21.91"/>
<polygon class="st1" points="57.34,14.47 57.34,16.33 59.2,16.33 59.2,18.19 61.06,18.19 61.06,16.33 62.92,16.33 62.92,14.47 
	61.06,14.47 61.06,12.6 59.2,12.6 59.2,14.47 "/>
<path class="st8" d="M35.93,16.33h-1.86c-0.51,0-0.93-0.42-0.93-0.93h-1.86c0,1.54,1.25,2.79,2.79,2.79v0.93h1.86v-0.93
	c1.54,0,2.79-1.25,2.79-2.79c0-1.54-1.25-2.79-2.79-2.79h-1.86c-0.51,0-0.93-0.42-0.93-0.93c0-0.51,0.42-0.93,0.93-0.93h1.86
	c0.51,0,0.93,0.42,0.93,0.93h1.86c0-1.54-1.25-2.79-2.79-2.79V7.95h-1.86v0.93c-1.54,0-2.79,1.25-2.79,2.79s1.25,2.79,2.79,2.79
	h1.86c0.51,0,0.93,0.42,0.93,0.93C36.86,15.91,36.44,16.33,35.93,16.33"/>
<polygon class="st1" points="52.68,13.54 54.54,13.54 54.54,10.74 57.34,10.74 57.34,8.88 54.54,8.88 54.54,6.09 52.68,6.09 
	52.68,8.88 49.89,8.88 49.89,10.74 52.68,10.74 "/>
<polygon class="st1" points="55.47,23.77 55.47,21.91 57.34,21.91 57.34,20.05 55.47,20.05 55.47,18.19 53.61,18.19 53.61,20.05 
	51.75,20.05 51.75,21.91 53.61,21.91 53.61,23.77 "/>
<polygon class="st1" points="16.39,16.33 18.25,16.33 18.25,14.47 20.11,14.47 20.11,12.6 18.25,12.6 18.25,10.74 16.39,10.74 
	16.39,12.6 14.53,12.6 14.53,14.47 16.39,14.47 "/>
<polygon class="st1" points="9.87,23.77 11.73,23.77 11.73,20.98 14.53,20.98 14.53,19.12 11.73,19.12 11.73,16.33 9.87,16.33 
	9.87,19.12 7.08,19.12 7.08,20.98 9.87,20.98 "/>
</svg>
