<?xml version="1.0" encoding="utf-8"?>
<!-- Generator: Adobe Illustrator 23.1.1, SVG Export Plug-In . SVG Version: 6.00 Build 0)  -->
<svg version="1.1" id="Layer_1" xmlns="http://www.w3.org/2000/svg" xmlns:xlink="http://www.w3.org/1999/xlink" x="0px" y="0px"
	 viewBox="0 0 70 74" style="enable-background:new 0 0 70 74;" xml:space="preserve">
<style type="text/css">
	.st0{fill:#F6B347;}
	.st1{fill:#000B3A;}
	.st2{fill:none;stroke:#000B3A;stroke-width:2.22;stroke-miterlimit:10;}
	.st3{fill:none;stroke:#000B3A;stroke-width:2.22;stroke-linecap:round;stroke-linejoin:round;stroke-miterlimit:10;}
	.st4{fill:none;stroke:#FFFFFF;stroke-width:2.22;stroke-linecap:round;stroke-linejoin:round;stroke-miterlimit:10;}
	.st5{fill:none;stroke:#FFFFFF;stroke-width:2;stroke-miterlimit:10;}
	.st6{fill:#00135C;}
	.st7{fill:none;stroke:#4CA92C;stroke-width:7;stroke-linecap:round;stroke-linejoin:round;stroke-miterlimit:10;}
	.st8{fill:#FFFFFF;}
</style>
<g>
	<path class="st2" d="M46.78,63.31H7.22c-1.84,0-3.33-1.49-3.33-3.33V6.64c0-1.84,1.49-3.33,3.33-3.33h39.56
		c1.84,0,3.33,1.49,3.33,3.33v53.34C50.11,61.82,48.62,63.31,46.78,63.31z"/>
	<line class="st3" x1="11.18" y1="10.69" x2="28.74" y2="10.69"/>
	<line class="st3" x1="11.18" y1="17.02" x2="42.82" y2="17.02"/>
	<line class="st3" x1="11.18" y1="23.35" x2="42.82" y2="23.35"/>
	<line class="st3" x1="11.18" y1="29.69" x2="42.82" y2="29.69"/>
	<line class="st3" x1="11.18" y1="36.02" x2="42.82" y2="36.02"/>
	<line class="st3" x1="11.18" y1="42.35" x2="42.82" y2="42.35"/>
	<line class="st3" x1="11.18" y1="48.69" x2="42.82" y2="48.69"/>
	<line class="st4" x1="28.74" y1="55.85" x2="42.82" y2="55.85"/>
	<path class="st1" d="M62.79,70.69H23.22c-1.84,0-3.33-1.49-3.33-3.33V14.02c0-1.84,1.49-3.33,3.33-3.33h39.56
		c1.84,0,3.33,1.49,3.33,3.33v53.35C66.11,69.2,64.62,70.69,62.79,70.69"/>
	<path class="st5" d="M62.79,70.69H23.22c-1.84,0-3.33-1.49-3.33-3.33V14.02c0-1.84,1.49-3.33,3.33-3.33h39.56
		c1.84,0,3.33,1.49,3.33,3.33v53.35C66.11,69.2,64.62,70.69,62.79,70.69z"/>
	<line class="st4" x1="27.18" y1="18.06" x2="44.75" y2="18.06"/>
	<line class="st4" x1="27.18" y1="24.4" x2="58.83" y2="24.4"/>
	<line class="st4" x1="27.18" y1="30.73" x2="58.83" y2="30.73"/>
	<line class="st4" x1="27.18" y1="37.06" x2="58.83" y2="37.06"/>
	<line class="st4" x1="27.18" y1="43.4" x2="58.83" y2="43.4"/>
	<line class="st4" x1="27.18" y1="49.73" x2="58.83" y2="49.73"/>
	<line class="st4" x1="27.18" y1="56.06" x2="58.83" y2="56.06"/>
	<line class="st4" x1="44.75" y1="63.23" x2="58.83" y2="63.23"/>
	<path class="st1" d="M55.48,43.4c0-7-5.67-12.67-12.67-12.67c-6.99,0-12.67,5.67-12.67,12.67c0,7,5.67,12.67,12.67,12.67
		C49.81,56.06,55.48,50.39,55.48,43.4"/>
	<path class="st5" d="M55.48,43.4c0-7-5.67-12.67-12.67-12.67c-6.99,0-12.67,5.67-12.67,12.67c0,7,5.67,12.67,12.67,12.67
		C49.81,56.06,55.48,50.39,55.48,43.4z"/>
	<polyline class="st7" points="35.93,40.32 42.91,53.09 57.12,29.09 	"/>
</g>
</svg>
